%TF.GenerationSoftware,KiCad,Pcbnew,9.0.7*%
%TF.CreationDate,2026-05-29T12:48:50+08:00*%
%TF.ProjectId,esp32_s3_dome_controller,65737033-325f-4733-935f-646f6d655f63,rev?*%
%TF.SameCoordinates,Original*%
%TF.FileFunction,Soldermask,Top*%
%TF.FilePolarity,Negative*%
%FSLAX46Y46*%
G04 Gerber Fmt 4.6, Leading zero omitted, Abs format (unit mm)*
G04 Created by KiCad (PCBNEW 9.0.7) date 2026-05-29 12:48:50*
%MOMM*%
%LPD*%
G01*
G04 APERTURE LIST*
%ADD10C,6.200000*%
%ADD11R,2.200000X2.200000*%
%ADD12R,1.200000X2.200000*%
%ADD13R,1.000000X2.200000*%
%ADD14R,0.800000X2.000000*%
%ADD15R,1.200000X1.600000*%
%ADD16R,2.000000X1.500000*%
%ADD17R,1.500000X2.500000*%
%ADD18R,5.000000X2.500000*%
%ADD19R,0.900000X1.400000*%
%ADD20R,2.000000X2.000000*%
%ADD21R,2.400000X2.400000*%
%ADD22R,0.800000X1.000000*%
%ADD23R,1.200000X1.000000*%
%ADD24R,1.000000X1.200000*%
G04 APERTURE END LIST*
D10*
%TO.C,MH1*%
X6000000Y-6000000D03*
%TD*%
%TO.C,MH2*%
X85440000Y-6000000D03*
%TD*%
%TO.C,MH3*%
X6000000Y-81630000D03*
%TD*%
%TO.C,MH4*%
X85440000Y-81630000D03*
%TD*%
D11*
%TO.C,J2*%
X86000000Y-24540000D03*
X86000000Y-19460000D03*
%TD*%
%TO.C,J3*%
X86000000Y-39540000D03*
X86000000Y-34460000D03*
%TD*%
%TO.C,J4*%
X86000000Y-54540000D03*
X86000000Y-49460000D03*
%TD*%
%TO.C,J1*%
X6460000Y-76000000D03*
X11540000Y-76000000D03*
%TD*%
D12*
%TO.C,J9*%
X30000000Y-82000000D03*
D13*
X32400000Y-82000000D03*
D14*
X34800000Y-82000000D03*
X37200000Y-82000000D03*
X39600000Y-82000000D03*
X40800000Y-82000000D03*
D12*
X42400000Y-82000000D03*
%TD*%
D11*
%TO.C,J6*%
X7460000Y-13000000D03*
X12540000Y-13000000D03*
%TD*%
%TO.C,J7*%
X22460000Y-13000000D03*
X27540000Y-13000000D03*
%TD*%
%TO.C,J8*%
X37460000Y-13000000D03*
X42540000Y-13000000D03*
%TD*%
%TO.C,J5*%
X70460000Y-13000000D03*
X75540000Y-13000000D03*
%TD*%
D15*
%TO.C,U1*%
X18000000Y-41000000D03*
X18000000Y-43400000D03*
X18000000Y-45800000D03*
X18000000Y-48200000D03*
X18000000Y-50600000D03*
X18000000Y-53000000D03*
X18000000Y-55400000D03*
X38000000Y-61000000D03*
X38000000Y-63400000D03*
X38000000Y-41000000D03*
D16*
X28000000Y-38000000D03*
%TD*%
D17*
%TO.C,U3*%
X17700000Y-78000000D03*
X20000000Y-78000000D03*
X22300000Y-78000000D03*
D18*
X20000000Y-73500000D03*
%TD*%
D19*
%TO.C,U2*%
X55000000Y-15600000D03*
X57000000Y-15600000D03*
X59000000Y-15600000D03*
X61000000Y-15600000D03*
X61000000Y-20400000D03*
X59000000Y-20400000D03*
X57000000Y-20400000D03*
X55000000Y-20400000D03*
%TD*%
D20*
%TO.C,K1*%
X60000000Y-18000000D03*
X60000000Y-26000000D03*
D21*
X71000000Y-18000000D03*
X71000000Y-26000000D03*
%TD*%
D22*
%TO.C,Q1*%
X46800000Y-26900000D03*
X49200000Y-26900000D03*
D23*
X48000000Y-25000000D03*
%TD*%
D22*
%TO.C,R1*%
X41000000Y-24000000D03*
X43000000Y-24000000D03*
%TD*%
D24*
%TO.C,D1*%
X54500000Y-22000000D03*
X57500000Y-22000000D03*
%TD*%
D20*
%TO.C,K2*%
X60000000Y-33000000D03*
X60000000Y-41000000D03*
D21*
X71000000Y-33000000D03*
X71000000Y-41000000D03*
%TD*%
D22*
%TO.C,Q2*%
X46800000Y-41900000D03*
X49200000Y-41900000D03*
D23*
X48000000Y-40000000D03*
%TD*%
D22*
%TO.C,R2*%
X41000000Y-39000000D03*
X43000000Y-39000000D03*
%TD*%
D24*
%TO.C,D2*%
X54500000Y-37000000D03*
X57500000Y-37000000D03*
%TD*%
D20*
%TO.C,K3*%
X60000000Y-48000000D03*
X60000000Y-56000000D03*
D21*
X71000000Y-48000000D03*
X71000000Y-56000000D03*
%TD*%
D22*
%TO.C,Q3*%
X46800000Y-56900000D03*
X49200000Y-56900000D03*
D23*
X48000000Y-55000000D03*
%TD*%
D22*
%TO.C,R3*%
X41000000Y-54000000D03*
X43000000Y-54000000D03*
%TD*%
D24*
%TO.C,D3*%
X54500000Y-52000000D03*
X57500000Y-52000000D03*
%TD*%
D22*
%TO.C,R4*%
X13000000Y-22000000D03*
X15000000Y-22000000D03*
%TD*%
%TO.C,R5*%
X28000000Y-22000000D03*
X30000000Y-22000000D03*
%TD*%
%TO.C,R6*%
X43000000Y-22000000D03*
X45000000Y-22000000D03*
%TD*%
%TO.C,R8*%
X72000000Y-22000000D03*
X74000000Y-22000000D03*
%TD*%
%TO.C,R9*%
X44000000Y-80000000D03*
X46000000Y-80000000D03*
%TD*%
%TO.C,R10*%
X44000000Y-84000000D03*
X46000000Y-84000000D03*
%TD*%
M02*
